<svg xmlns="http://www.w3.org/2000/svg" width="20.501" height="20.54" viewBox="0 0 20.501 20.54">
  <path id="phone_1_" data-name="phone (1)" d="M21.611,16.628v2.941a1.961,1.961,0,0,1-2.137,1.961,19.4,19.4,0,0,1-8.461-3.01A19.118,19.118,0,0,1,5.13,12.638a19.4,19.4,0,0,1-3.01-8.5A1.961,1.961,0,0,1,4.071,2H7.012A1.961,1.961,0,0,1,8.973,3.686a12.589,12.589,0,0,0,.686,2.755A1.961,1.961,0,0,1,9.218,8.51L7.973,9.755a15.687,15.687,0,0,0,5.883,5.883L15.1,14.393a1.961,1.961,0,0,1,2.069-.441,12.589,12.589,0,0,0,2.755.686,1.961,1.961,0,0,1,1.686,1.99Z" transform="translate(-1.611 -1.5)" fill="none" stroke="#1b1c20" stroke-linecap="round" stroke-linejoin="round" stroke-width="1"/>
</svg>
